<svg width="140" height="152" viewBox="0 0 140 152" fill="none" xmlns="http://www.w3.org/2000/svg">
<path d="M60.3145 54.1751C59.8065 51.4368 59.4662 49.423 59.2936 48.1338C59.1196 46.6833 59.0248 45.0707 59.0093 43.2961C58.9556 37.1657 59.9548 31.5101 62.0069 26.3293C64.2203 21.147 67.2467 16.6837 71.0861 12.9393C74.924 9.03355 79.4151 6.00947 84.5592 3.86704C89.7033 1.7246 95.2599 0.627263 101.229 0.575024C105.262 0.539727 109.783 0.903512 114.791 1.66638C119.799 2.42925 125.945 4.15019 133.229 6.82922L124.128 45.3883C118.149 44.3113 113.868 43.6227 111.283 43.3227C108.699 43.0226 106.359 42.8818 104.262 42.9001C98.9377 42.9467 96.2935 44.9866 96.3288 49.0198C96.3641 53.0529 98.6403 55.0498 103.157 55.0102C106.868 54.9778 110.896 54.3778 115.242 53.2104C119.588 52.043 124.337 50.7914 129.488 49.4556L139.262 87.8495C129.29 91.3249 120.034 93.826 111.497 95.3528C103.121 96.8782 95.5445 97.6705 88.7688 97.7298C84.2516 97.7693 79.087 97.5725 73.275 97.1394C67.4616 96.5449 61.9659 95.3829 56.7879 93.6535L57.2919 151.247L13.4916 151.631L12.9791 93.0689C12.9127 85.4865 12.61 78.5515 12.071 72.264C11.5305 65.8152 10.6695 59.6111 9.48798 53.6519C8.46778 47.6913 7.12563 41.8141 5.46153 36.0205C3.95735 30.0641 2.20835 23.7871 0.214537 17.1897L42.6778 2.29749L53.732 48.6665C54.2344 50.7595 54.8924 52.2058 55.7061 53.0054C56.5198 53.805 58.0559 54.1949 60.3145 54.1751Z" fill="#BDE1F6"/>
</svg>
