<svg width="157" height="151" viewBox="0 0 157 151" fill="none" xmlns="http://www.w3.org/2000/svg">
<path d="M98.594 0.944486C100.453 10.6086 101.819 19.2283 102.692 26.8036C103.565 34.3789 104.1 40.1018 104.295 43.9722C104.784 44.6133 105.353 45.0117 105.999 45.1674C106.807 45.3216 107.453 45.3967 107.937 45.3924C109.228 45.3811 110.273 44.9686 111.073 44.1549C111.872 43.3412 112.266 42.2084 112.253 40.7565C112.246 39.9498 111.893 36.4841 111.194 30.3594C110.493 24.0732 109.463 16.9027 108.101 8.8476L151.832 0.478566C153.867 11.7545 155.076 20.9403 155.461 28.0359C155.846 35.1314 156.059 41.0185 156.1 45.697C156.155 51.9887 155.239 57.9663 153.353 63.6297C151.465 69.1317 148.683 73.9156 145.008 77.9813C141.494 82.0455 137.086 85.3109 131.783 87.7774C126.64 90.0811 120.762 91.2619 114.147 91.3198C110.921 91.3481 106.962 90.6567 102.271 89.2457C97.5783 87.6734 93.2784 84.8876 89.3712 80.8883C85.6946 84.7926 81.6047 87.5711 77.1017 89.224C72.76 90.8753 67.7659 91.7258 62.1195 91.7752C60.9902 91.785 60.0222 91.7935 59.2156 91.8006C58.4089 91.8076 57.6009 91.6534 56.7914 91.3378L57.3082 150.384L13.5079 150.767L12.9953 92.2051C12.929 84.6227 12.6263 77.6878 12.0872 71.4002C11.5468 64.9514 10.6858 58.7473 9.50426 52.7881C8.48406 46.8275 7.14191 40.9503 5.47781 35.1567C3.97363 29.2003 2.22463 22.9234 0.230815 16.3259L42.6941 1.4337L52.4812 41.2796C53.1533 44.3392 54.538 45.8598 56.6353 45.8414C59.0552 45.8202 60.2517 44.277 60.2249 41.2118C60.2178 40.4052 59.7884 37.4242 58.9366 32.2687C58.2447 26.9506 56.887 19.2989 54.8635 9.31352L98.594 0.944486Z" fill="#BDE1F6"/>
</svg>
