<svg width="121" height="172" viewBox="0 0 121 172" fill="none" xmlns="http://www.w3.org/2000/svg">
<path d="M71.0607 104.059C69.7728 104.052 68.6688 104.046 67.7488 104.041C66.8288 104.036 65.9098 103.847 64.9918 103.474L64.6244 170.817L14.6692 170.545L15.0336 103.754C15.0808 95.1059 14.8479 87.1926 14.3351 80.0136C13.8233 72.6507 12.9419 65.5618 11.6911 58.7469C10.6242 51.933 9.18891 45.209 7.38507 38.5751C5.76624 31.7582 3.87342 24.5717 1.70662 17.0158L50.3722 0.721073L60.8876 46.3191C61.6045 49.8191 63.159 51.5756 65.5509 51.5887C68.3109 51.6037 69.7004 49.8633 69.7195 46.3673C69.7245 45.4473 69.2831 42.0409 68.3952 36.1479C67.6924 30.072 66.2681 21.3241 64.1223 9.90424L114.127 1.06892C116.453 13.2258 117.961 23.5382 118.651 32.0061C119.524 40.475 119.947 47.3774 119.918 52.7133C119.878 59.8892 118.737 66.6911 116.494 73.1189C114.252 79.3628 111.003 84.7731 106.746 89.35C102.672 93.9278 97.5925 97.5802 91.5055 100.307C85.4196 102.85 78.6046 104.101 71.0607 104.059Z" fill="#BDE1F6"/>
</svg>
