<svg width="66" height="172" viewBox="0 0 66 172" fill="none" xmlns="http://www.w3.org/2000/svg">
<path d="M15.4435 171.316L14.8397 104.526C14.7616 95.8787 14.4141 87.9696 13.7972 80.7988C13.1787 73.4441 12.1947 66.3687 10.8452 59.5727C9.67973 52.7749 8.14708 46.0725 6.24728 39.4654C4.5298 32.6727 2.53302 25.5144 0.256913 17.9907L48.6812 0.992244C51.7083 10.1653 54.2695 18.6985 56.365 26.5918C58.4587 34.3012 60.0934 42.1068 61.2688 50.0085C62.4443 57.9102 63.2543 66.0912 63.6988 74.5515C64.3273 83.0102 64.6873 92.2993 64.7787 102.419L65.3975 170.864L15.4435 171.316Z" fill="#BDE1F6"/>
</svg>
